<?xml version="1.0" encoding="iso-8859-1"?>
<!-- Generator: Adobe Illustrator 19.0.0, SVG Export Plug-In . SVG Version: 6.00 Build 0)  -->
<svg version="1.1" id="Capa_1" xmlns="http://www.w3.org/2000/svg" xmlns:xlink="http://www.w3.org/1999/xlink" x="0px" y="0px"
	 viewBox="0 0 496 496" style="enable-background:new 0 0 496 496;" xml:space="preserve">
<g>
	<path style="fill:#FFCB57;" d="M296,80c-26.952,0-51.752,8.992-71.784,24H232l3.24,32.44C251.04,121.336,272.416,112,296,112
		c48.6,0,88,39.4,88,88s-39.4,88-88,88s-88-39.4-88-88h-32c0,66.272,53.728,120,120,120s120-53.728,120-120S362.272,80,296,80z"/>
	<path style="fill:#FFCB57;" d="M200,416c26.952,0,51.752-8.992,71.784-24H264l-3.24-32.44C244.96,374.664,223.584,384,200,384
		c-48.6,0-88-39.4-88-88s39.4-88,88-88s88,39.4,88,88h32c0-66.272-53.728-120-120-120S80,229.728,80,296S133.728,416,200,416z"/>
</g>
<g>
	<path style="fill:#3F3A34;" d="M312.544,443.672l-40.44-32.344l-4.72,2.696c-9.824,5.616-20.448,10.008-31.584,13.048l-5.24,1.432
		L224.84,480h-49.688l-5.72-51.496l-5.24-1.432c-11.144-3.04-21.768-7.432-31.584-13.048l-4.72-2.696l-40.44,32.344L52.32,408.544
		l32.352-40.432l-2.704-4.72c-5.616-9.824-10.008-20.448-13.048-31.576l-1.416-5.256L16,320.84v-49.68l51.504-5.72l1.432-5.248
		c3.04-11.128,7.432-21.752,13.048-31.576l2.704-4.72l-32.352-40.432l35.128-35.128l40.44,32.344l4.72-2.696
		c9.824-5.616,20.448-10.008,31.584-13.048l5.24-1.432L175.16,112h49.688l5.72,51.496l5.24,1.432
		c11.144,3.04,21.768,7.432,31.584,13.048l4.72,2.696l40.44-32.344l35.128,35.128l-32.352,40.432l2.704,4.72
		c5.616,9.824,10.008,20.448,13.048,31.576l15.44-4.208c-2.904-10.648-6.92-20.88-11.96-30.504l34.56-43.208l-55.376-55.376
		l-43.208,34.56c-8.024-4.2-16.488-7.696-25.248-10.424L239.16,96h-78.312l-6.12,55.024c-8.768,2.728-17.224,6.224-25.248,10.424
		l-43.208-34.56l-55.376,55.376l34.56,43.208c-4.2,8.024-7.696,16.488-10.424,25.248L0,256.84v78.32l55.032,6.12
		c2.728,8.76,6.216,17.216,10.424,25.248l-34.56,43.208l55.376,55.376l43.208-34.56c8.024,4.2,16.488,7.696,25.248,10.424
		L160.84,496h78.312l6.12-55.024c8.768-2.728,17.224-6.224,25.248-10.424l43.208,34.56l50.312-50.32l-11.312-11.312L312.544,443.672
		z"/>
	<path style="fill:#3F3A34;" d="M274.544,266.912l14.904-5.824C274.96,223.984,239.848,200,200,200c-52.936,0-96,43.064-96,96
		s43.064,96,96,96c18.68,0,36.792-5.368,52.368-15.528l-8.736-13.408C230.656,371.528,215.568,376,200,376
		c-44.112,0-80-35.888-80-80s35.888-80,80-80C233.208,216,262.48,235.984,274.544,266.912z"/>
	<path style="fill:#3F3A34;" d="M496,239.16v-78.32l-55.032-6.12c-2.728-8.76-6.216-17.216-10.424-25.248l34.56-43.208
		l-55.376-55.376l-43.208,34.56c-8.024-4.2-16.488-7.696-25.248-10.424L335.16,0h-78.312l-6.12,55.024
		c-8.768,2.728-17.224,6.224-25.248,10.424l-43.208-34.56l-50.312,50.32l11.312,11.312l40.184-40.192l40.44,32.344l4.72-2.696
		c9.824-5.616,20.448-10.008,31.584-13.048l5.24-1.432L271.16,16h49.688l5.72,51.496l5.24,1.432
		c11.144,3.04,21.768,7.432,31.584,13.048l4.72,2.696l40.44-32.344l35.128,35.128l-32.352,40.432l2.704,4.72
		c5.616,9.824,10.008,20.448,13.048,31.576l1.432,5.248L480,175.16v49.68l-51.504,5.72l-1.432,5.248
		c-3.04,11.128-7.432,21.752-13.048,31.576l-2.704,4.72l32.352,40.432l-35.128,35.128l-40.44-32.344l-4.72,2.696
		c-9.824,5.616-20.448,10.008-31.584,13.048l-5.24,1.432L320.84,384h-49.688l-5.72-51.496l-5.24-1.432
		c-11.144-3.04-21.768-7.432-31.584-13.048l-4.72-2.696l-40.44,32.344l-35.128-35.128l32.352-40.432l-2.704-4.72
		c-5.616-9.824-10.008-20.448-13.048-31.576l-15.44,4.208c2.904,10.648,6.92,20.88,11.96,30.504l-34.56,43.208l55.376,55.376
		l43.208-34.56c8.024,4.2,16.488,7.696,25.248,10.424L256.84,400h78.312l6.12-55.024c8.768-2.728,17.224-6.224,25.248-10.424
		l43.208,34.56l55.376-55.376l-34.56-43.208c4.2-8.024,7.696-16.488,10.424-25.248L496,239.16z"/>
	<path style="fill:#3F3A34;" d="M296,296c52.936,0,96-43.064,96-96s-43.064-96-96-96c-15.368,0-30.048,3.52-43.64,10.472
		l7.28,14.248c11.32-5.784,23.552-8.72,36.36-8.72c44.112,0,80,35.888,80,80s-35.888,80-80,80c-33.208,0-62.48-19.984-74.544-50.912
		l-14.904,5.824C221.04,272.016,256.152,296,296,296z"/>
</g>
<g>
	<rect x="288" y="48" style="fill:#E56565;" width="16" height="16"/>
	
		<rect x="186.177" y="293.792" transform="matrix(-0.7071 0.7071 -0.7071 -0.7071 544.8799 377.8878)" style="fill:#E56565;" width="16" height="16"/>
	<rect x="288" y="336" style="fill:#E56565;" width="16" height="16"/>
	
		<rect x="389.819" y="293.798" transform="matrix(-0.7071 0.7071 -0.7071 -0.7071 892.5226 233.9018)" style="fill:#E56565;" width="16" height="16"/>
	<rect x="432" y="192" style="fill:#E56565;" width="16" height="16"/>
	
		<rect x="389.819" y="90.175" transform="matrix(-0.7071 0.7071 -0.7071 -0.7071 748.54 -113.7056)" style="fill:#E56565;" width="16" height="16"/>
	<rect x="192" y="144" style="fill:#E56565;" width="16" height="16"/>
	
		<rect x="90.177" y="186.172" transform="matrix(-0.7071 0.7071 -0.7071 -0.7071 304.8995 262.0504)" style="fill:#E56565;" width="16" height="16"/>
	<rect x="48" y="288" style="fill:#E56565;" width="16" height="16"/>
	
		<rect x="90.177" y="389.796" transform="matrix(-0.7071 0.7071 -0.7071 -0.7071 448.8822 609.6578)" style="fill:#E56565;" width="16" height="16"/>
	<rect x="192" y="432" style="fill:#E56565;" width="16" height="16"/>
	
		<rect x="293.819" y="186.17" transform="matrix(-0.7071 0.7071 -0.7071 -0.7071 652.5366 118.0507)" style="fill:#E56565;" width="16" height="16"/>
</g>
<g>
</g>
<g>
</g>
<g>
</g>
<g>
</g>
<g>
</g>
<g>
</g>
<g>
</g>
<g>
</g>
<g>
</g>
<g>
</g>
<g>
</g>
<g>
</g>
<g>
</g>
<g>
</g>
<g>
</g>
</svg>
