<svg id="Layer_5" enable-background="new 0 0 64 64" height="512" viewBox="0 0 64 64" width="512" xmlns="http://www.w3.org/2000/svg"><path d="m6 50v6c0 1.105.895 2 2 2h2c1.105 0 2-.895 2-2v-2h6v2c0 1.105.895 2 2 2h2c1.105 0 2-.895 2-2v-6z" fill="#f0bc5e"/><circle cx="24" cy="24" fill="#f0bc5e" r="19"/><path d="m50.549 36.296-.549-.36-.549.36c-2.245 1.473-4.854 2.383-7.543 2.632l-.908.084v6.339c0 5.727 3.372 10.938 8.591 13.275l.409.183.409-.183c5.219-2.338 8.591-7.549 8.591-13.275v-6.339l-.908-.084c-2.69-.249-5.298-1.159-7.543-2.632zm6.451 9.055c0 4.401-2.313 8.444-6 10.7v-11.051h-2v11.051c-3.687-2.256-6-6.299-6-10.7v-4.538c2.1-.3 4.13-.979 6-1.96v4.147h2v-4.147c1.87.981 3.9 1.66 6 1.96z"/><path d="m59.657 35c-3.381 0-6.56-1.316-8.95-3.707l-.707-.707-.707.707c-1.354 1.354-2.967 2.35-4.721 2.971 1.585-3.175 2.428-6.675 2.428-10.264 0-12.683-10.317-23-23-23s-23 10.317-23 23c0 7.66 3.854 14.761 10.059 19h-7.059c-1.654 0-3 1.346-3 3v2c0 1.654 1.346 3 3 3h33.881c1.766 5.535 6.072 10.039 11.802 11.948l.317.106.316-.105c7.586-2.529 12.684-9.601 12.684-17.598v-10.351zm-19.314 0h-2.343-1-4.119c1.14-2.86 1.962-6.206 2.088-10h9.996c-.166 3.506-1.198 6.895-3.017 9.887-.529.067-1.063.113-1.605.113zm-17.958 8c-1.249-1.401-2.792-3.415-4.15-6h11.531c-1.358 2.585-2.901 4.599-4.15 6zm-19.348-18h9.995c.126 3.794.948 7.14 2.088 10h-8.985c-1.833-2.976-2.926-6.406-3.098-10zm20.964-21.659c1.141 1.066 3.652 3.684 5.743 7.659h-11.48c2.092-3.969 4.599-6.59 5.737-7.659zm6.706 9.659c1.215 2.81 2.109 6.167 2.249 10h-17.912c.14-3.829 1.038-7.187 2.257-10zm14.242 10h-9.971c-.124-3.802-.945-7.145-2.076-10h8.952c1.816 2.936 2.922 6.344 3.095 10zm-31.927 0h-9.971c.173-3.656 1.279-7.064 3.095-10h8.952c-1.132 2.855-1.952 6.198-2.076 10zm2.009 2h17.938c-.137 3.839-1.035 7.19-2.247 10h-13.443c-1.212-2.811-2.111-6.162-2.248-10zm16.977 12h4.992v6h-8.772c1.237-1.554 2.6-3.56 3.78-6zm8.453-26h-8.435c-1.707-3.542-3.804-6.171-5.333-7.807 5.563.717 10.446 3.61 13.768 7.807zm-19.153-7.807c-1.53 1.636-3.626 4.265-5.333 7.807h-8.436c3.322-4.197 8.205-7.09 13.769-7.807zm-13.774 33.807h8.458c1.18 2.44 2.543 4.446 3.78 6h-4.713c-2.992-1.411-5.545-3.487-7.525-6zm-3.534 12c-.552 0-1-.448-1-1v-2c0-.552.448-1 1-1h33v.351c0 1.245.137 2.463.375 3.649zm57-3.649c0 7.023-4.406 13.247-11 15.592-6.594-2.345-11-8.568-11-15.592v-8.351h1.343c3.591 0 6.984-1.282 9.657-3.63 2.673 2.348 6.066 3.63 9.657 3.63h1.343z"/><path d="m36.258 17.152 1.953-.428c-.15-.685-.32-1.352-.507-2.001l-1.922.553c.175.609.335 1.235.476 1.876z"/><path d="m36.858 20.981 1.992-.188c-.065-.696-.152-1.378-.257-2.046l-1.977.311c.1.628.182 1.268.242 1.923z"/><path d="m11.142 27.019-1.992.188c.065.696.152 1.378.257 2.046l1.977-.311c-.1-.628-.182-1.268-.242-1.923z"/><path d="m11.742 30.848-1.953.428c.15.685.32 1.352.507 2.001l1.922-.553c-.175-.609-.335-1.235-.476-1.876z"/><path d="m29 27h2v2h-2z"/><path d="m25 27h2v2h-2z"/><path d="m21 27h2v2h-2z"/><path d="m17 19h2v2h-2z"/><path d="m21 19h2v2h-2z"/><path d="m25 19h2v2h-2z"/></svg>