<?xml version="1.0" encoding="iso-8859-1"?>
<!-- Generator: Adobe Illustrator 19.0.0, SVG Export Plug-In . SVG Version: 6.00 Build 0)  -->
<svg version="1.1" id="Capa_1" xmlns="http://www.w3.org/2000/svg" xmlns:xlink="http://www.w3.org/1999/xlink" x="0px" y="0px"
	 viewBox="0 0 496 496" style="enable-background:new 0 0 496 496;" xml:space="preserve">
<circle style="fill:#FFA64D;" cx="312" cy="184" r="152"/>
<g>
	<path style="fill:#333333;" d="M312,0C210.536,0,128,82.536,128,184c0,31.392,7.92,60.968,21.84,86.848L136,284.688l-18.344-18.344
		l-11.312,11.312L124.688,296L112,308.688l-18.344-18.344l-11.312,11.312L100.688,320L15.6,405.088
		C5.536,415.152,0,428.512,0,442.744C0,472.112,23.888,496,53.256,496c14.224,0,27.592-5.536,37.656-15.6L176,395.312l18.344,18.344
		l11.312-11.312L187.312,384L200,371.312l18.344,18.344l11.312-11.312L211.312,360l13.84-13.84C251.032,360.08,280.608,368,312,368
		c101.464,0,184-82.536,184-184S413.464,0,312,0z M79.6,469.088C72.56,476.128,63.208,480,53.256,480
		C32.712,480,16,463.288,16,442.744c0-9.952,3.872-19.304,10.912-26.344L112,331.312L164.688,384L79.6,469.088z M176,372.688
		L123.312,320L136,307.312L188.688,360L176,372.688z M200,348.688L147.312,296l11-11c13.8,20.936,31.752,38.888,52.688,52.688
		L200,348.688z M312,352c-84.464,0-154.376-62.728-166.08-144h58.2l35.784-50.096l72,104l79.872-111.832L419.72,192H448v-16h-19.72
		l-36.056-54.08l-80.12,112.176l-72-104L195.88,192H144.4c-0.12-2.672-0.4-5.296-0.4-8s0.28-5.328,0.408-8H160v-16h-14.08
		C157.624,78.728,227.536,16,312,16c89.936,0,163.376,71.096,167.592,160H464v16h15.592c-0.256,5.408-0.752,10.736-1.512,16H448v16
		h26.984C456.968,297.352,390.824,352,312,352z"/>
	<path style="fill:#333333;" d="M360,40c-17.648,0-32,14.352-32,32c0,6.408,1.936,12.36,5.192,17.368l-35.704,49.984l13.016,9.296
		l34.632-48.48C349.6,102.536,354.608,104,360,104c17.648,0,32-14.352,32-32S377.648,40,360,40z M360,88c-8.824,0-16-7.176-16-16
		s7.176-16,16-16s16,7.176,16,16S368.824,88,360,88z"/>
	<rect x="416" y="208" style="fill:#333333;" width="16" height="16"/>
	<rect x="176" y="160" style="fill:#333333;" width="16" height="16"/>
</g>
<g>
</g>
<g>
</g>
<g>
</g>
<g>
</g>
<g>
</g>
<g>
</g>
<g>
</g>
<g>
</g>
<g>
</g>
<g>
</g>
<g>
</g>
<g>
</g>
<g>
</g>
<g>
</g>
<g>
</g>
</svg>
