<svg id="Layer_5" enable-background="new 0 0 64 64" height="512" viewBox="0 0 64 64" width="512" xmlns="http://www.w3.org/2000/svg"><path d="m23 36h-2c0-3.86 3.14-7 7-7v2c-2.757 0-5 2.243-5 5z"/><path d="m5.926 63c-2.716 0-4.926-2.21-4.926-4.926 0-1.408.604-2.751 1.657-3.685l12.951-11.49 1.327 1.496-12.951 11.49c-.625.554-.984 1.352-.984 2.189 0 1.614 1.312 2.926 2.926 2.926.836 0 1.634-.359 2.189-.984l11.49-12.951 1.496 1.327-11.49 12.951c-.934 1.053-2.277 1.657-3.685 1.657z"/><path d="m50 11h-48v-7c0-1.105.895-2 2-2h44c1.105 0 2 .895 2 2z" fill="#f0bc5e"/><path d="m5 5h2v2h-2z"/><path d="m9 5h2v2h-2z"/><path d="m13 5h2v2h-2z"/><path d="m14.582 33h-9.582v-20h24v9h-2v-7h-20v16h7.582z"/><path d="m41 14h6v4h-6z" fill="#f0bc5e"/><path d="m33 13h14v2h-14z"/><path d="m41 17h6v2h-6z"/><path d="m5 35h2v2h-2z"/><path d="m9 35h2v2h-2z"/><path d="m9 17h2v2h-2z"/><path d="m9 21h2v2h-2z"/><path d="m9 25h2v2h-2z"/><path d="m9.707 55.707-1.414-1.414 1.343-1.343 1.414 1.414zm2.757-2.757-1.414-1.414 1.414-1.414 1.414 1.414zm2.829-2.829-1.414-1.414 1.414-1.414 1.414 1.414z"/><path d="m36.452 23.61c-.432.241-.922.39-1.452.39-1.463 0-2.678-1.048-2.943-2.434-1.316-.369-2.675-.566-4.057-.566-8.271 0-15 6.729-15 15s6.729 15 15 15 15-6.729 15-15c0-4.943-2.49-9.611-6.548-12.39zm-8.452 22.39c-5.514 0-10-4.486-10-10s4.486-10 10-10c1.108 0 2.195.18 3.233.534l1.942.908c3.022 1.83 4.825 5.027 4.825 8.558 0 5.514-4.486 10-10 10z" fill="#f0bc5e"/><path d="m60 30h-3.101c-.465-2.279-2.484-4-4.899-4-.342 0-.677.035-1 .101v-22.101c0-1.654-1.346-3-3-3h-44c-1.654 0-3 1.346-3 3v34c0 1.654 1.346 3 3 3h9.877c-.231-.647-.41-1.316-.55-2h-9.327c-.551 0-1-.449-1-1v-34c0-.551.449-1 1-1h44c.551 0 1 .449 1 1v23.026c-.297.225-.564.483-.804.768l-9.364-5.71c.098-.347.168-.706.168-1.084 0-2.206-1.794-4-4-4s-4 1.794-4 4c0 1.365.689 2.57 1.736 3.292l-.736 1.472c-1.242-.487-2.588-.764-4-.764-6.065 0-11 4.935-11 11s4.935 11 11 11c2.886 0 5.507-1.126 7.471-2.95.053-.079.104-.159.169-.223.06-.059.139-.087.208-.133 1.947-1.986 3.152-4.701 3.152-7.694 0-3.941-2.09-7.394-5.213-9.337l.85-1.7c.121.011.239.037.363.037 1.107 0 2.11-.453 2.835-1.182l9.404 5.734c-.046.15-.106.292-.138.447h-5.372c.284.648.522 1.316.713 2h4.659c.465 2.279 2.484 4 4.899 4s4.434-1.721 4.899-4h3.101c.551 0 1 .449 1 1v22c0 .551-.449 1-1 1h-20c-.551 0-1-.449-1-1v-8.841c-.608.658-1.284 1.246-2 1.787v7.055c0 1.654 1.346 3 3 3h20c1.654 0 3-1.346 3-3v-22c0-1.654-1.346-3-3-3zm-23 6c0 4.962-4.038 9-9 9s-9-4.038-9-9 4.038-9 9-9c1.091 0 2.132.205 3.101.562l-2.737 5.475c-.121-.015-.24-.037-.364-.037-1.654 0-3 1.346-3 3s1.346 3 3 3 3-1.346 3-3c0-.807-.324-1.537-.844-2.077l2.734-5.468c2.47 1.607 4.11 4.386 4.11 7.545zm-8 0c0 .551-.449 1-1 1s-1-.449-1-1 .449-1 1-1 1 .449 1 1zm6-13c-1.103 0-2-.897-2-2s.897-2 2-2 2 .897 2 2-.897 2-2 2zm17 11c-1.654 0-3-1.346-3-3s1.346-3 3-3 3 1.346 3 3-1.346 3-3 3z"/><path d="m45 40v4h-4v10h18v-16h-6v6h-2v-4zm4 2v10h-2v-10zm-6 4h2v6h-2zm12-6h2v12h-2zm-2 6v6h-2v-6z"/></svg>