<svg height="496pt" viewBox="0 0 496 496" width="496pt" xmlns="http://www.w3.org/2000/svg"><path d="m128 128v-12.441406c9.527344-5.542969 16-15.742188 16-27.558594v-14.335938c0-16.878906-12.320312-32.070312-29.136719-33.535156-18.960937-1.648437-34.863281 13.253906-34.863281 31.871094v16c0 11.816406 6.472656 22.015625 16 27.558594v12.441406l-32.921875 9.40625c-13.664063 3.90625-23.078125 16.386719-23.078125 30.59375h144c0-14.207031-9.414062-26.6875-23.078125-30.59375zm0 0" fill="#f0bc5e"/><path d="m400 400v-12.441406c9.527344-5.542969 16-15.742188 16-27.558594v-14.335938c0-16.878906-12.320312-32.070312-29.136719-33.535156-18.960937-1.648437-34.863281 13.253906-34.863281 31.871094v16c0 11.816406 6.472656 22.015625 16 27.558594v12.441406l-32.921875 9.40625c-13.664063 3.90625-23.078125 16.386719-23.078125 30.59375h144c0-14.207031-9.414062-26.6875-23.078125-30.59375zm0 0" fill="#f0bc5e"/><path d="m456.808594 321.535156c14.960937 17.425782 23.191406 39.609375 23.191406 62.464844 0 52.9375-43.0625 96-96 96-22.855469 0-45.039062-8.230469-62.464844-23.191406l-10.421875 12.144531c20.320313 17.4375 46.207031 27.046875 72.886719 27.046875 61.761719 0 112-50.238281 112-112 0-26.679688-9.609375-52.566406-27.054688-72.878906zm0 0"/><path d="m288 384c0-52.9375 43.0625-96 96-96 22.855469 0 45.039062 8.230469 62.464844 23.191406l10.421875-12.144531c-20.320313-17.4375-46.207031-27.046875-72.886719-27.046875-28.007812 0-53.574219 10.398438-73.230469 27.457031l-35.296875-35.296875c2.808594-4.769531 4.527344-10.238281 4.527344-16.160156s-1.71875-11.390625-4.535156-16.152344l88.765625-88.769531c7.847656 5.59375 17.417969 8.921875 27.769531 8.921875 5.3125 0 10.414062-.902344 15.191406-2.503906l31.136719 58.390625c-3.886719 4.265625-6.328125 9.890625-6.328125 16.113281 0 13.230469 10.769531 24 24 24s24-10.769531 24-24-10.769531-24-24-24c-1.207031 0-2.375.183594-3.535156.359375l-31.160156-58.421875c11.34375-8.792969 18.695312-22.503906 18.695312-37.9375 0-10.351562-3.328125-19.921875-8.921875-27.769531l30.640625-30.628907c3.128906 1.488282 6.585938 2.398438 10.28125 2.398438 13.230469 0 24-10.769531 24-24s-10.769531-24-24-24-24 10.769531-24 24c0 3.695312.902344 7.152344 2.40625 10.28125l-30.636719 30.628906c-7.847656-5.582031-17.417969-8.910156-27.769531-8.910156s-19.921875 3.328125-27.769531 8.921875l-30.636719-30.632813c1.503906-3.136718 2.40625-6.59375 2.40625-10.289062 0-13.230469-10.769531-24-24-24s-24 10.769531-24 24 10.769531 24 24 24c3.695312 0 7.152344-.910156 10.28125-2.40625l30.640625 30.628906c-5.59375 7.855469-8.921875 17.425782-8.921875 27.777344s3.328125 19.921875 8.921875 27.769531l-88.769531 88.765625c-4.761719-2.816406-10.230469-4.535156-16.152344-4.535156s-11.390625 1.726562-16.152344 4.535156l-35.414062-35.414062c17.125-19.738282 27.566406-45.351563 27.566406-73.121094 0-58.175781-45.457031-107.191406-103.480469-111.574219l-1.199219 15.949219c49.726563 3.761719 88.679688 45.769531 88.679688 95.625s-38.953125 91.863281-88.679688 95.625l1.199219 15.949219c24.671875-1.863281 47.015625-11.855469 64.617188-27.125l35.390625 35.398437c-2.808594 4.761719-4.527344 10.242188-4.527344 16.152344 0 5.921875 1.71875 11.390625 4.535156 16.152344l-88.765625 88.769531c-7.847656-5.59375-17.417969-8.921875-27.769531-8.921875-8.792969 0-17.015625 2.414062-24.113281 6.558594l-35.320313-42.382813c2.128906-3.582031 3.433594-7.710937 3.433594-12.175781 0-13.230469-10.769531-24-24-24s-24 10.769531-24 24 10.769531 24 24 24c2.921875 0 5.6875-.601562 8.28125-1.558594l35.304688 42.375c-7.203126 8.390625-11.585938 19.28125-11.585938 31.183594 0 10.351562 3.328125 19.921875 8.921875 27.769531l-30.640625 30.636719c-3.128906-1.503906-6.585938-2.40625-10.28125-2.40625-13.230469 0-24 10.769531-24 24s10.769531 24 24 24 24-10.769531 24-24c0-3.695312-.902344-7.152344-2.40625-10.28125l30.636719-30.640625c7.847656 5.59375 17.417969 8.921875 27.769531 8.921875 13.742188 0 26.128906-5.839844 34.886719-15.128906l37.921875 25.28125c-.480469 1.878906-.808594 3.816406-.808594 5.847656 0 13.230469 10.769531 24 24 24s24-10.769531 24-24-10.769531-24-24-24c-5.382812 0-10.304688 1.839844-14.3125 4.847656l-37.902344-25.273437c2.6875-5.980469 4.214844-12.597657 4.214844-19.574219 0-10.351562-3.328125-19.921875-8.921875-27.769531l88.769531-88.765625c4.761719 2.816406 10.230469 4.535156 16.152344 4.535156s11.390625-1.71875 16.152344-4.535156l35.296875 35.296875c-17.050781 19.664062-27.449219 45.230469-27.449219 73.238281 0 26.679688 9.609375 52.566406 27.054688 72.878906l12.144531-10.421875c-14.96875-17.417969-23.199219-39.601562-23.199219-62.457031zm176-160c0 4.40625-3.585938 8-8 8s-8-3.59375-8-8 3.585938-8 8-8 8 3.59375 8 8zm-264 224c4.414062 0 8 3.585938 8 8s-3.585938 8-8 8-8-3.585938-8-8 3.585938-8 8-8zm272-432c4.414062 0 8 3.59375 8 8s-3.585938 8-8 8-8-3.59375-8-8 3.585938-8 8-8zm-80 56c17.648438 0 32 14.351562 32 32s-14.351562 32-32 32-32-14.351562-32-32 14.351562-32 32-32zm-80-40c-4.414062 0-8-3.59375-8-8s3.585938-8 8-8 8 3.59375 8 8-3.585938 8-8 8zm-296 264c0-4.414062 3.585938-8 8-8s8 3.585938 8 8-3.585938 8-8 8-8-3.585938-8-8zm8 184c-4.414062 0-8-3.585938-8-8s3.585938-8 8-8 8 3.585938 8 8-3.585938 8-8 8zm80-56c-17.648438 0-32-14.351562-32-32s14.351562-32 32-32 32 14.351562 32 32-14.351562 32-32 32zm128-176c0-8.824219 7.175781-16 16-16s16 7.175781 16 16-7.175781 16-16 16-16-7.175781-16-16zm0 0"/><path d="m103.480469 223.574219 1.199219-15.949219c-49.726563-3.761719-88.679688-45.769531-88.679688-95.625s38.953125-91.863281 88.679688-95.625l-1.199219-15.949219c-58.023438 4.382813-103.480469 53.398438-103.480469 111.574219s45.457031 107.191406 103.480469 111.574219zm0 0"/></svg>