<?xml version="1.0" encoding="iso-8859-1"?>
<!-- Generator: Adobe Illustrator 22.1.0, SVG Export Plug-In . SVG Version: 6.00 Build 0)  -->
<svg xmlns="http://www.w3.org/2000/svg" xmlns:xlink="http://www.w3.org/1999/xlink" version="1.1" id="Layer_1_1_" x="0px" y="0px" viewBox="0 0 64 64" style="enable-background:new 0 0 64 64;" xml:space="preserve" width="512" height="512">
<g>
	<path style="fill:#F0BC5E;" d="M27,40v-4.21c-2.688-1.379-4.736-3.828-5.575-6.79H21c-2.209,0-4-1.791-4-4c0-2.209,1.791-4,4-4   v-0.001C21,18.79,22.79,17,24.999,17h10.567c0.918,0,1.799-0.365,2.448-1.014l0.158-0.158c0.53-0.53,1.25-0.828,2-0.828   C41.734,15,43,16.266,43,17.828V21c2.209,0,4,1.791,4,4c0,2.209-1.791,4-4,4h-0.425c-0.839,2.962-2.887,5.411-5.575,6.79V40   l8.427,1.405l8.261-4.13l-0.981-0.981C49.672,33.258,48,29.222,48,24.929V17c0-8.822-7.178-16-16-16S16,8.178,16,17v7.929   c0,4.293-1.672,8.329-4.707,11.364l-0.981,0.981l8.261,4.13L27,40z"/>
	<g>
		<rect x="11" y="61" width="42" height="2"/>
	</g>
	<g>
		<path d="M32,34c-2.206,0-4-1.794-4-4v-2h8v2C36,32.206,34.206,34,32,34z M30,30c0,1.103,0.897,2,2,2s2-0.897,2-2H30z"/>
	</g>
	<g>
		<path d="M40,23h-2c0-0.552-0.448-1-1-1s-1,0.448-1,1h-2c0-1.654,1.346-3,3-3S40,21.346,40,23z"/>
	</g>
	<g>
		<path d="M30,23h-2c0-0.552-0.448-1-1-1s-1,0.448-1,1h-2c0-1.654,1.346-3,3-3S30,21.346,30,23z"/>
	</g>
	<path d="M49.314,41.039L38,39.153v-2.777c2.456-1.425,4.356-3.693,5.312-6.408C45.921,29.804,48,27.65,48,25   c0-2.414-1.721-4.434-4-4.899v-2.273C44,15.718,42.282,14,40.172,14c-1.022,0-1.984,0.398-2.707,1.121l-0.158,0.158   C36.842,15.744,36.224,16,35.566,16H24.999c-2.446,0-4.478,1.768-4.907,4.092C17.768,20.521,16,22.554,16,25   c0,2.65,2.079,4.804,4.688,4.969c0.956,2.715,2.856,4.983,5.312,6.408v2.777l-11.314,1.886c-1.686,0.281-3.207,1.073-4.4,2.293   l1.43,1.398c0.895-0.913,2.035-1.508,3.299-1.719l7.251-1.209c1.404,3.239,3.811,6.009,6.837,7.825l1.309,0.786L32,47.236   l1.589,3.178l1.308-0.786c3.028-1.816,5.434-4.587,6.838-7.825l7.251,1.209c1.264,0.211,2.404,0.806,3.299,1.719l1.43-1.398   C52.521,42.112,51,41.32,49.314,41.039z M46,25c0,1.361-0.916,2.5-2.16,2.866C43.936,27.256,44,26.636,44,26v-3.816   C45.161,22.598,46,23.698,46,25z M18,25c0-1.302,0.839-2.402,2-2.816V26c0,0.636,0.064,1.256,0.16,1.865   C18.916,27.5,18,26.361,18,25z M22,26v-5.001C22,19.346,23.346,18,24.999,18h10.567c1.191,0,2.312-0.464,3.154-1.307l0.158-0.158   C39.219,16.195,39.69,16,40.172,16C41.18,16,42,16.82,42,17.828V26c0,5.514-4.486,10-10,10S22,31.514,22,26z M32,38   c1.404,0,2.747-0.255,4-0.7v2.286l-4,4l-4-4V37.3C29.253,37.745,30.596,38,32,38z M29.595,47.574   c-2.282-1.506-4.123-3.64-5.294-6.111l2.356-0.393l4.127,4.127L29.595,47.574z M34.405,47.574l-1.188-2.377l4.127-4.127   l2.356,0.393C38.528,43.934,36.687,46.067,34.405,47.574z"/>
	<path style="fill:#F0BC5E;" d="M53,63c-5.514,0-10-4.486-10-10s4.486-10,10-10s10,4.486,10,10S58.514,63,53,63z"/>
	<g>
		<path d="M53,59c-3.309,0-6-2.691-6-6h2c0,2.206,1.794,4,4,4s4-1.794,4-4h2C59,56.309,56.309,59,53,59z"/>
	</g>
	<circle cx="50" cy="50" r="1"/>
	<circle cx="56" cy="50" r="1"/>
	<path style="fill:#F0BC5E;" d="M11,63C5.486,63,1,58.514,1,53s4.486-10,10-10s10,4.486,10,10S16.514,63,11,63z"/>
	<g>
		<path d="M11,59c-3.309,0-6-2.691-6-6h2c0,2.206,1.794,4,4,4s4-1.794,4-4h2C17,56.309,14.309,59,11,59z"/>
	</g>
	<circle cx="8" cy="50" r="1"/>
	<circle cx="14" cy="50" r="1"/>
</g>
</svg>
