<svg id="Layer_5" enable-background="new 0 0 64 64" height="512" viewBox="0 0 64 64" width="512" xmlns="http://www.w3.org/2000/svg"><g><g><path d="m53 13c-6.99 0-13.712-2.119-19.438-6.127l-1.562-1.094-1.562 1.093c-5.726 4.009-12.448 6.128-19.438 6.128-1.103 0-2 .897-2 2v13.528c0 13.256 8.323 25.333 20.709 30.05.735.28 1.506.422 2.291.422s1.556-.142 2.291-.422c12.386-4.718 20.709-16.794 20.709-30.05v-13.528c0-1.103-.897-2-2-2zm0 15.528c0 12.431-7.805 23.756-19.421 28.181-1.014.387-2.144.387-3.157 0-11.617-4.425-19.422-15.75-19.422-28.181v-13.528c7.402 0 14.521-2.244 20.585-6.489l.415-.29.415.291c6.064 4.244 13.183 6.488 20.585 6.488z"/><path d="m51 28.528v-5.528h-2v5.528c0 2.43-.344 4.85-1.023 7.194l1.921.557c.731-2.526 1.102-5.133 1.102-7.751z"/><path d="m49 19h2v2h-2z"/><path d="m54 9c-6.036 0-11.913-1.722-16.995-4.979l-5.016-3.216-4.327 2.885c-5.21 3.474-11.275 5.31-17.537 5.31-2.826 0-5.125 2.299-5.125 5.125v14.403c0 14.835 9.3 28.392 23.141 33.733.812.313 1.606.527 2.361.634h.001c.505.071 1.008.106 1.507.106 1.267 0 2.507-.229 3.705-.685 13.927-5.304 23.285-18.883 23.285-33.788v-14.528c0-2.757-2.243-5-5-5zm3 19.528c0 14.081-8.84 26.908-21.998 31.919-1.35.514-2.77.67-4.222.467-.604-.085-1.25-.26-1.92-.519-13.075-5.046-21.86-17.852-21.86-31.867v-14.403c0-1.723 1.402-3.125 3.125-3.125 6.658 0 13.106-1.952 18.646-5.646l3.239-2.16 3.916 2.51c5.405 3.465 11.655 5.296 18.074 5.296 1.654 0 3 1.346 3 3z"/></g><g><g><path d="m42 43h-20v-20h20z" fill="#f0bc5e"/></g></g><g><path d="m38 15h-12c-2.757 0-5 2.243-5 5v26c0 2.757 2.243 5 5 5h12c2.757 0 5-2.243 5-5v-26c0-2.757-2.243-5-5-5zm3 31c0 1.654-1.346 3-3 3h-12c-1.654 0-3-1.346-3-3v-26c0-1.654 1.346-3 3-3h12c1.654 0 3 1.346 3 3z"/><path d="m31 19h6v2h-6z"/><path d="m27 19h2v2h-2z"/><path d="m27 45h2v2h-2z"/><path d="m31 45h2v2h-2z"/><path d="m35 45h2v2h-2z"/></g></g></svg>