<svg height="496pt" viewBox="0 0 496 496" width="496pt" xmlns="http://www.w3.org/2000/svg"><path d="m408 240h-80v80h80l-24-40zm0 0" fill="#f0bc5e"/><path d="m304 240h-160v-112h160zm0 0" fill="#f0bc5e"/><path d="m496 136c0-39.695312-32.296875-72-72-72-1.121094 0-2.214844.121094-3.320312.167969-10.550782-37.519531-45.175782-64.167969-84.679688-64.167969-11.304688 0-22.238281 2.257812-32.414062 6.296875-18.128907-4.152344-36.816407-6.296875-55.585938-6.296875-136.753906 0-248 111.257812-248 248 0 136.753906 111.246094 248 248 248s248-111.246094 248-248c0-25.097656-3.855469-49.808594-11.222656-73.558594 7.070312-11.136718 11.222656-24.296875 11.222656-38.441406zm-91.230469-69.3125c-30.386719 8.441406-52.769531 36.28125-52.769531 69.3125h16c0-30.878906 25.128906-56 56-56s56 25.121094 56 56-25.128906 56-56 56h-88v-96h-136c0-26.472656 21.527344-48 48-48 6.214844 0 12.3125 1.199219 18.105469 3.558594l6.09375 2.488281 3.617187-5.503906c13.382813-20.375 35.886719-32.542969 60.183594-32.542969 31.6875 0 59.550781 20.945312 68.769531 50.6875zm-300.769531 317.3125c-8.839844 0-17.214844 2.9375-24 8.023438v-256.023438c0-13.230469 10.769531-24 24-24h8v272zm24-272h192v272h-192zm120-96c11.441406 0 22.839844.929688 34.097656 2.585938-5.921875 4.613281-11.355468 9.925781-16.007812 16.03125-5.875-1.738282-11.929688-2.617188-18.089844-2.617188-35.289062 0-64 28.710938-64 64h-80c-22.054688 0-40 17.945312-40 40v253.070312c-30.0625-39.125-48-88.03125-48-141.070312 0-127.929688 104.078125-232 232-232zm-164.425781 395.496094c4.3125-7 11.984375-11.496094 20.425781-11.496094h192.207031c-5.078125 6.703125-8.207031 14.960938-8.207031 24s3.128906 17.296875 8.207031 24h-165.574219c-17.21875-10.144531-33.039062-22.414062-47.058593-36.503906zm79.929687 52.503906h168.984375c-26.199219 10.289062-54.6875 16-84.496093 16-29.808594 0-58.28125-5.710938-84.488282-16zm172.496094-1.382812v-14.617188h-8c-13.230469 0-24-10.769531-24-24s10.769531-24 24-24h8v-192h88c18.625 0 35.550781-7.167969 48.351562-18.808594 4.992188 19.128906 7.648438 38.832032 7.648438 58.808594 0 96.785156-59.601562 179.871094-144 214.617188zm0 0"/><path d="m288 256h16v16h-16zm0 0"/><path d="m200 256h72v16h-72zm0 0"/></svg>