<svg height="493pt" viewBox="-62 0 493 493.336" width="493pt" xmlns="http://www.w3.org/2000/svg"><g fill="#f0bc5e"><path d="m311.121094 104.6875-65.480469 32.753906-61.472656-46.105468-61.472657 46.105468-65.480468-32.753906-12.078125 7.265625 27.398437 87.765625h223.265625l27.398438-87.765625zm0 0"/><path d="m184.167969 461.335938c-13.230469 0-24-10.769532-24-24 0-13.230469 10.769531-24 24-24s24 10.769531 24 24c0 13.230468-10.769531 24-24 24zm0-32c-4.414063 0-8 3.585937-8 8 0 4.417968 3.585937 8 8 8 4.417969 0 8-3.582032 8-8 0-4.414063-3.582031-8-8-8zm0 0"/><path d="m272.167969 437.335938c-13.230469 0-24-10.769532-24-24 0-13.230469 10.769531-24 24-24s24 10.769531 24 24c0 13.230468-10.769531 24-24 24zm0-32c-4.414063 0-8 3.585937-8 8 0 4.417968 3.585937 8 8 8 4.417969 0 8-3.582032 8-8 0-4.414063-3.582031-8-8-8zm0 0"/><path d="m96.167969 437.335938c-13.230469 0-24-10.769532-24-24 0-13.230469 10.769531-24 24-24s24 10.769531 24 24c0 13.230468-10.769531 24-24 24zm0-32c-4.414063 0-8 3.585937-8 8 0 4.417968 3.585937 8 8 8 4.417969 0 8-3.582032 8-8 0-4.414063-3.582031-8-8-8zm0 0"/></g><path d="m368.167969 213.335938v-24h-36.902344l30.519531-91.550782-34.664062-20.800781 20.519531-13.679687-35.472656-47.304688-35.480469 47.304688 19.570312 13.039062-47.25 23.625-50.992187-38.25 21.632813-14.414062-35.480469-47.304688-35.480469 47.304688 21.632812 14.414062-50.992187 38.25-47.25-23.625 19.570313-13.039062-35.480469-47.304688-35.480469 47.304688 20.519531 13.679687-34.664062 20.800781 30.527343 91.550782h-36.902343v24c0 12.0625 8.976562 21.976562 20.585937 23.65625l-9.730468 25.9375c-7.199219 19.222656-10.855469 39.367187-10.855469 59.878906 0 94.03125 76.496093 170.527344 170.527343 170.527344h26.9375c94.039063 0 170.535157-76.496094 170.535157-170.527344 0-20.503906-3.65625-40.65625-10.855469-59.863282l-9.726562-25.945312c11.605468-1.6875 20.582031-11.601562 20.582031-23.664062zm-56-170.664063 12.519531 16.695313-12.519531 8.351562-12.519531-8.351562zm-140.519531.695313 12.519531-16.695313 12.519531 16.695313-12.253906 8.167968-.265625-.199218-.273438.199218zm-115.480469-.695313 12.519531 16.695313-12.519531 8.351562-12.519531-8.351562zm-30.382813 62.214844 30.152344-18.085938.230469.152344.574219-.386719 64.265624 32.136719 63.160157-47.367187 63.160156 47.367187 64.265625-32.136719.574219.386719.230469-.152344 30.152343 18.085938-28.144531 84.449219h-260.476562zm248.613282 132.449219 9.226562 27.695312c3.023438 9.03125 4.542969 18.441406 4.542969 27.945312 0 48.71875-39.640625 88.359376-88.359375 88.359376h-31.28125c-48.71875 0-88.359375-39.640626-88.359375-88.359376 0-9.503906 1.519531-18.914062 4.527343-27.945312l9.234376-27.695312h10.238281c13.230469 0 24-10.769532 24-24v-8h112v8c0 13.230468 10.769531 24 24 24zm-258.230469-24v-8h96v8c0 4.417968-3.582031 8-8 8h-80c-4.414063 0-8-3.582032-8-8zm181.472656 264h-26.9375c-85.214844 0-154.535156-69.320313-154.535156-154.527344 0-18.585938 3.3125-36.832032 9.839843-54.257813l11.703126-31.214843h39.359374l-7.550781 22.632812c-3.542969 10.671875-5.351562 21.773438-5.351562 33.007812 0 57.542969 46.816406 104.359376 104.359375 104.359376h31.28125c57.542968 0 104.359375-46.816407 104.359375-104.359376 0-11.234374-1.808594-22.335937-5.359375-33.007812l-7.542969-22.632812h39.359375l11.703125 31.214843c6.527344 17.417969 9.839844 35.664063 9.839844 54.257813 0 85.207031-69.320313 154.527344-154.527344 154.527344zm154.527344-264c0 4.417968-3.582031 8-8 8h-80c-4.414063 0-8-3.582032-8-8v-8h96zm0 0"/></svg>