<svg id="Layer_5" enable-background="new 0 0 64 64" height="512" viewBox="0 0 64 64" width="512" xmlns="http://www.w3.org/2000/svg"><g><g><g><path d="m28 43c-6.065 0-11-4.935-11-11s4.935-11 11-11 11 4.935 11 11-4.935 11-11 11z" fill="#f0bc5e"/></g></g><g><g><path d="m28 43c-6.065 0-11-4.935-11-11s4.935-11 11-11 11 4.935 11 11-4.935 11-11 11z" fill="#f0bc5e"/></g></g><g><path d="m18 27.444c.503-1.1 1.181-2.101 2-2.971v-2.473h-2z"/><path d="m17.223 15.782c2.263-1.415 3.777-3.922 3.777-6.782 0-4.411-3.589-8-8-8s-8 3.589-8 8c0 2.86 1.514 5.367 3.777 6.782-4.536 1.714-7.777 6.089-7.777 11.218v10c0 2.206 1.794 4 4 4h1v18c0 2.206 1.794 4 4 4 1.2 0 2.266-.542 3-1.382.734.84 1.8 1.382 3 1.382 2.206 0 4-1.794 4-4v-19.474c-.819-.87-1.497-1.871-2-2.971v22.445c0 1.103-.897 2-2 2s-2-.897-2-2v-18-.757c0-.534.208-1.037.586-1.415l1.121-1.121-1.414-1.414-1.121 1.121c-.756.755-1.172 1.76-1.172 2.829v.757 18c0 1.103-.897 2-2 2s-2-.897-2-2v-37h-2v17h-1c-1.103 0-2-.897-2-2v-10c0-3.574 1.891-6.707 4.718-8.476.646 3.168 1.912 6.224 3.703 8.911l1.579 2.368 1.618-2.426c1.776-2.665 3.037-5.695 3.688-8.836 1.604 1.007 2.924 2.457 3.752 4.217.556-.359 1.144-.672 1.763-.928-1.35-2.813-3.74-4.965-6.598-6.048zm-6.731 5.289c-.391-1.129-.694-2.285-.906-3.458.383-.14.775-.259 1.178-.352zm2.508 5.126c-.274-.418-.53-.848-.777-1.283l.565-7.903c.071-.002.14-.011.212-.011.071 0 .141.007.212.008l.565 7.914c-.246.433-.503.86-.777 1.275zm0-11.197c-3.309 0-6-2.691-6-6s2.691-6 6-6 6 2.691 6 6-2.691 6-6 6zm2.511 6.115-.276-3.857c.411.095.812.221 1.205.366-.217 1.184-.529 2.352-.929 3.491z"/><path d="m46 45c-1.07 0-2.092.197-3.044.541l-6.508-6.508c-.428.513-.901.986-1.414 1.414l6.033 6.033c-2.446 1.612-4.067 4.379-4.067 7.52 0 4.962 4.038 9 9 9s9-4.038 9-9-4.038-9-9-9zm0 16c-1.631 0-3.13-.565-4.321-1.504.885-1.534 2.513-2.496 4.321-2.496s3.436.962 4.321 2.496c-1.191.939-2.69 1.504-4.321 1.504zm-2-8c0-1.103.897-2 2-2s2 .897 2 2-.897 2-2 2-2-.897-2-2zm7.729 5.01c-.708-1.021-1.655-1.834-2.763-2.351.635-.708 1.034-1.634 1.034-2.659 0-2.206-1.794-4-4-4s-4 1.794-4 4c0 1.025.399 1.951 1.034 2.659-1.108.517-2.055 1.33-2.763 2.351-.798-1.137-1.271-2.518-1.271-4.01 0-3.86 3.14-7 7-7s7 3.14 7 7c0 1.492-.473 2.873-1.271 4.01z"/><path d="m36.448 24.966 6.508-6.508c.952.345 1.974.542 3.044.542 4.962 0 9-4.038 9-9s-4.038-9-9-9-9 4.038-9 9c0 3.141 1.621 5.908 4.067 7.519l-6.033 6.033c.513.428.986.901 1.414 1.414zm9.552-7.966c-1.631 0-3.13-.565-4.321-1.504.885-1.534 2.513-2.496 4.321-2.496s3.436.962 4.321 2.496c-1.191.939-2.69 1.504-4.321 1.504zm-2-8c0-1.103.897-2 2-2s2 .897 2 2-.897 2-2 2-2-.897-2-2zm-3.729 5.01c-.798-1.137-1.271-2.518-1.271-4.01 0-3.86 3.14-7 7-7s7 3.14 7 7c0 1.492-.473 2.873-1.271 4.01-.708-1.021-1.655-1.834-2.763-2.351.635-.708 1.034-1.634 1.034-2.659 0-2.206-1.794-4-4-4s-4 1.794-4 4c0 1.025.399 1.951 1.034 2.659-1.107.518-2.054 1.33-2.763 2.351z"/><path d="m54 23c-4.624 0-8.441 3.507-8.941 8h-6.11c.03.33.051.662.051 1s-.021.67-.051 1h6.11c.5 4.493 4.317 8 8.941 8 4.962 0 9-4.038 9-9s-4.038-9-9-9zm0 16c-1.631 0-3.13-.565-4.321-1.504.885-1.534 2.513-2.496 4.321-2.496s3.436.962 4.321 2.496c-1.191.939-2.69 1.504-4.321 1.504zm-2-8c0-1.103.897-2 2-2s2 .897 2 2-.897 2-2 2-2-.897-2-2zm7.729 5.01c-.708-1.021-1.655-1.834-2.763-2.351.635-.708 1.034-1.634 1.034-2.659 0-2.206-1.794-4-4-4s-4 1.794-4 4c0 1.025.399 1.951 1.034 2.659-1.108.517-2.055 1.33-2.763 2.351-.798-1.137-1.271-2.518-1.271-4.01 0-3.86 3.14-7 7-7s7 3.14 7 7c0 1.492-.473 2.873-1.271 4.01z"/><path d="m29 29c.551 0 1 .449 1 1h2c0-1.654-1.346-3-3-3v-2h-2v2h-3v3c0 1.654 1.346 3 3 3h2c.551 0 1 .449 1 1v1h-3c-.551 0-1-.449-1-1h-2c0 1.654 1.346 3 3 3v2h2v-2h3v-3c0-1.654-1.346-3-3-3h-2c-.551 0-1-.449-1-1v-1z"/></g></g></svg>