<svg id="Layer_5" enable-background="new 0 0 64 64" height="512" viewBox="0 0 64 64" width="512" xmlns="http://www.w3.org/2000/svg"><path d="m62.22 21c.48-.532.78-1.229.78-2 0-1.654-1.346-3-3-3h-5.5c-.276 0-.5-.224-.5-.5 0-.109.035-.213.1-.3 1.87-2.493 2.9-5.583 2.9-8.7v-.5c0-2.757-2.243-5-5-5-1.103 0-2 .897-2 2v1.725c0 2.49-.97 4.83-2.73 6.591-.586.585-1.247 1.091-1.966 1.501l-5.57 3.183h-6.734v2h7.266l6.03-3.446c.873-.499 1.677-1.112 2.388-1.824 2.138-2.138 3.316-4.981 3.316-8.005v-1.725c1.654 0 3 1.346 3 3v.5c0 2.687-.888 5.351-2.501 7.501-.322.43-.499.962-.499 1.499 0 1.378 1.122 2.5 2.5 2.5h5.5c.551 0 1 .449 1 1s-.449 1-1 1h-5v2h5c.551 0 1 .449 1 1s-.449 1-1 1h-5v2h5c.551 0 1 .449 1 1s-.449 1-1 1h-5v2h5c.551 0 1 .449 1 1s-.449 1-1 1h-12.179c-.409 0-.806-.082-1.182-.242l-5.49-2.354c-.626-.268-1.289-.404-1.97-.404h-4.179v2h4.179c.409 0 .806.082 1.182.242l5.49 2.354c.626.268 1.289.404 1.97.404h12.179c1.654 0 3-1.346 3-3 0-.771-.301-1.468-.78-2 .48-.532.78-1.229.78-2s-.301-1.468-.78-2c.48-.532.78-1.229.78-2s-.301-1.468-.78-2z"/><path d="m12.006 58.924-3.006-2.405v-.889c0-2.83.438-5.63 1.301-8.325l-1.904-.61c-.856 2.672-1.304 5.444-1.37 8.246l-2.901-2.321.608-2.433c1.412-5.649 4.495-10.638 8.917-14.428l-1.302-1.519c-4.738 4.061-8.042 9.408-9.555 15.461l-.92 3.678 12.126 9.702v-3.418c0-7.449 2.025-14.761 5.857-21.147l-1.715-1.029c-3.892 6.485-6.006 13.882-6.136 21.437z"/><path d="m11 45.375c1.145-2.826 2.744-5.422 4.752-7.717l-1.505-1.317c-2.156 2.463-3.872 5.25-5.101 8.283z"/><path d="m42.126 53.38-.92-3.678c-1.513-6.053-4.817-11.4-9.555-15.461l-1.302 1.519c4.421 3.79 7.504 8.779 8.917 14.428l.608 2.433-2.901 2.321c-.066-2.802-.513-5.573-1.37-8.246l-1.904.61c.863 2.694 1.301 5.494 1.301 8.324v.889l-3.006 2.405c-.129-7.555-2.244-14.953-6.136-21.439l-1.715 1.029c3.832 6.387 5.857 13.699 5.857 21.148v3.418z"/><path d="m34.854 44.625c-1.229-3.033-2.945-5.82-5.101-8.283l-1.505 1.317c2.008 2.295 3.607 4.891 4.752 7.717z"/><path d="m37 25c0-1.043-.404-2.026-1.111-2.763.372-.951.369-2.013-.03-2.978-.4-.964-1.149-1.718-2.084-2.127-.021-1.021-.43-2.001-1.167-2.739-.738-.738-1.719-1.147-2.74-1.168-.409-.935-1.163-1.684-2.127-2.084-.965-.4-2.026-.401-2.978-.03-.737-.707-1.72-1.111-2.763-1.111s-2.026.404-2.763 1.111c-.95-.371-2.012-.369-2.978.03-.964.4-1.718 1.149-2.127 2.084-1.021.021-2.001.43-2.739 1.167-.738.738-1.147 1.719-1.168 2.74-.935.409-1.684 1.163-2.084 2.127-.399.964-.402 2.027-.03 2.978-.707.737-1.111 1.72-1.111 2.763s.404 2.026 1.111 2.763c-.372.951-.369 2.013.03 2.978.4.964 1.149 1.718 2.084 2.127.021 1.021.43 2.001 1.167 2.739.738.738 1.719 1.147 2.74 1.168.409.935 1.163 1.684 2.126 2.083.965.4 2.028.402 2.978.031.738.707 1.721 1.111 2.764 1.111s2.026-.404 2.763-1.111c.952.372 2.014.37 2.977-.031.965-.399 1.718-1.148 2.127-2.083 1.021-.021 2.001-.43 2.739-1.168s1.147-1.719 1.168-2.739c.935-.409 1.684-1.163 2.084-2.127.399-.964.402-2.027.03-2.978.708-.737 1.112-1.72 1.112-2.763zm-15 8c-4.418 0-8-3.582-8-8s3.582-8 8-8 8 3.582 8 8-3.582 8-8 8z" fill="#f0bc5e"/><path d="m22 30c-2.757 0-5-2.243-5-5s2.243-5 5-5 5 2.243 5 5-2.243 5-5 5zm0-8c-1.654 0-3 1.346-3 3s1.346 3 3 3 3-1.346 3-3-1.346-3-3-3z"/><path d="m22 34c-4.962 0-9-4.038-9-9 0-2.011.656-3.917 1.896-5.514l1.579 1.227c-.965 1.242-1.475 2.725-1.475 4.287 0 3.86 3.14 7 7 7 1.562 0 3.045-.51 4.287-1.475l1.227 1.579c-1.597 1.24-3.503 1.896-5.514 1.896z"/><path d="m29.104 30.514-1.579-1.227c.965-1.242 1.475-2.725 1.475-4.287 0-3.86-3.14-7-7-7-1.562 0-3.045.51-4.287 1.475l-1.227-1.579c1.597-1.24 3.503-1.896 5.514-1.896 4.962 0 9 4.038 9 9 0 2.011-.656 3.917-1.896 5.514z"/></svg>